<?xml version="1.0" ?><svg height="467.39001" id="svg24" version="1.1" viewBox="0 0 467.72299 467.39001" width="467.72299" xml:space="preserve" xmlns="http://www.w3.org/2000/svg" xmlns:cc="http://creativecommons.org/ns#" xmlns:dc="http://purl.org/dc/elements/1.1/" xmlns:inkscape="http://www.inkscape.org/namespaces/inkscape" xmlns:rdf="http://www.w3.org/1999/02/22-rdf-syntax-ns#" xmlns:sodipodi="http://sodipodi.sourceforge.net/DTD/sodipodi-0.dtd" xmlns:svg="http://www.w3.org/2000/svg"><defs id="defs28"/><g id="World_map_with_pointer_icon" transform="translate(-22.139,-22.305)"><g id="g20"><path d="m 256.168,22.305 c 128.777,0 233.693,104.577 233.693,233.69 0,129.123 -104.916,233.7 -233.693,233.7 -129.125,0 -234.029,-104.577 -234.029,-233.7 0,-129.113 104.904,-233.69 234.029,-233.69 z" id="path4" style="clip-rule:evenodd;fill:#4b4b55;fill-rule:evenodd"/><path d="m 487.843,225.399 c 1.346,9.739 2.019,20.175 2.019,30.596 0,120.725 -91.803,219.91 -209.149,232.359 -1.007,-1.026 -2.009,-1.694 -2.691,-2.691 -1.351,-1.017 -2.348,-1.694 -3.354,-2.687 -1.346,-1.021 -2.357,-2.362 -3.703,-3.373 -1.007,-1.012 -2.019,-2.014 -3.359,-3.021 -1.012,-1.011 -2.022,-2.014 -3.368,-3.039 -1.007,-0.992 -2.348,-2.014 -3.357,-3.006 -1.017,-1.021 -2.359,-2.028 -3.366,-3.04 -1.343,-1.007 -2.355,-2.014 -3.362,-3.021 -1.346,-1.012 -2.355,-2.027 -3.701,-3.373 -1.009,-0.998 -2.014,-2.014 -3.364,-3.007 -1.007,-1.025 -2.019,-2.032 -3.357,-3.039 -1.012,-1.007 -2.35,-2.014 -3.369,-3.021 -1.004,-1.012 -2.353,-2.014 -3.357,-3.025 -1.346,-1.021 -2.357,-2.014 -3.369,-3.035 -1.338,-0.997 -2.35,-2.014 -3.695,-3.025 -1,-1.002 -2.023,-2.014 -3.362,-3.021 -1.007,-1.012 -2.016,-2.014 -3.357,-3.034 -1.014,-1.002 -2.364,-2.348 -3.369,-3.359 -1.007,-0.673 -2.35,-1.67 -3.359,-2.696 -1.014,-0.997 -2.355,-2.343 -3.701,-3.354 -1.007,-1.007 -2.019,-2.009 -3.025,-3.035 -1.348,-0.992 -2.354,-2.014 -3.7,-3.006 -1.009,-1.026 -2.35,-2.023 -3.364,-3.04 -1.012,-1.002 -2.019,-2.014 -3.361,-3.024 -1.007,-1.012 -2.353,-2.014 -3.364,-3.021 -1.343,-1.021 -2.353,-2.014 -3.359,-3.039 -1.343,-0.992 -2.357,-2.014 -3.366,-3.021 -1.341,-1.002 -2.353,-2.014 -3.354,-3.025 -1.353,-1.346 -2.365,-2.348 -3.708,-3.359 -1.002,-1.017 -2.35,-2.009 -3.359,-3.034 -1.007,-0.993 -2.357,-2.014 -3.356,-3.025 -1.012,-1.007 -2.355,-2.014 -3.364,-3.021 -1.014,-1.002 -2.357,-2.014 -3.364,-3.025 -1.343,-1.012 -2.35,-2.023 -3.703,-3.369 -1.007,-0.668 -2.019,-1.665 -3.025,-2.691 -2.689,-2.348 -5.382,-4.7 -7.733,-7.387 -27.239,-26.897 -44.043,-64.228 -44.043,-105.579 v -0.344 c 0,-0.338 0,-0.338 0,-0.672 0,0 0,0 0,-0.34 0.332,0 0.332,-0.334 0.332,-0.334 0,0 0,0 0,-0.334 0,0 0,0 0,-0.338 0,0 0,-0.339 0,-0.668 0,-0.339 0,-0.339 0,-0.678 v 0 c 0,-0.334 0,-0.334 0,-0.334 v -0.334 c 0,-0.339 0,-0.339 0,-0.339 0,-0.334 0,-0.668 0,-1.007 v 0 c 0,-0.334 0,-0.668 0,-1.012 v -0.334 c 0,-0.349 0,-0.349 0,-0.349 0,-0.319 0,-0.319 0,-0.319 0,0 0,0 0,-0.349 v -0.324 -0.349 c 0,-0.324 0,-0.324 0,-0.673 v 0 c 0,-0.324 0,-0.324 0,-0.324 0,0 0,-0.349 0.336,-0.349 0,-0.324 0,-0.324 0,-0.668 0,0 0,0 0,-0.329 v -0.339 0 c 0,-0.329 0,-0.329 0,-0.678 0,0 0,0 0,-0.324 v -0.349 c 0,-0.334 0,-0.334 0,-0.334 0,-0.339 0,-0.339 0,-0.339 0,0 0,0 0,-0.334 v -0.334 c 0.334,-0.339 0.334,-0.678 0.334,-1.007 v 0 c 0,-0.339 0,-0.339 0,-0.339 v -0.334 c 0,-0.339 0,-0.339 0,-0.668 0,0 0,0 0,-0.344 v -0.329 0 c 0,-0.339 0.336,-0.339 0.336,-0.339 0,-0.343 0,-0.343 0,-0.673 v -0.339 -0.338 c 0,0 0,0 0,-0.334 0,0 0,0 0,-0.33 0,0 0,0 0,-0.353 0,0 0,-0.324 0.336,-0.324 0,-0.349 0,-0.349 0,-0.349 0,-0.32 0,-0.32 0,-0.668 v -0.325 -0.348 c 0,-0.324 0,-0.324 0,-0.673 0.334,0 0.334,0 0.334,-0.32 v 0 -0.348 c 0,-0.329 0,-0.329 0,-0.329 0,-0.348 0,-0.348 0,-0.668 v -0.349 0 c 0.338,0 0.338,-0.329 0.338,-0.329 0,-0.344 0,-0.344 0,-0.668 0,0 0,0 0,-0.348 v -0.334 c 0,-0.334 0,-0.334 0.337,-0.334 0,-0.343 0,-0.343 0,-0.673 0,0 0,0 0,-0.338 v -0.334 -0.339 c 0,0 0,0 0.336,0 0,-0.334 0,-0.334 0,-0.673 v -0.334 -0.334 c 0,-0.344 0,-0.344 0.332,-0.344 0,-0.329 0,-0.329 0,-0.329 0,0 0,0 0,-0.339 v -0.329 c 0,-0.344 0,-0.678 0.341,-1.012 v 0 c 0,-0.673 0,-1.017 0.332,-1.699 v 0 c 0,-0.664 0.339,-0.993 0.339,-1.661 0,0 0,0 0,-0.349 v 0 c 0.338,-0.673 0.338,-0.992 0.338,-1.67 0.336,0 0.336,0 0.336,0 0,-0.348 0,-0.348 0,-0.668 0,0 0,0 0,-0.349 0,0 0,-0.334 0.336,-0.334 0,-0.343 0,-0.343 0,-0.343 v 0 c 0,-0.334 0,-0.334 0,-0.668 0,0 0,0 0.339,-0.334 v -0.334 c 0,-0.338 0,-0.338 0,-0.338 v -0.339 c 0,0 0.334,0 0.334,-0.334 0,-0.334 0,-0.673 0.339,-1.007 0,-0.334 0,-0.334 0,-0.334 0,-0.334 0,-0.334 0,-0.678 0.332,0 0.332,-0.334 0.332,-0.334 0,-0.334 0,-0.334 0,-0.334 0,-0.334 0,-0.334 0,-0.334 0.341,0 0.341,0 0.341,-0.334 0,0 0,0 0,-0.339 v -0.348 c 0.332,-0.325 0.332,-0.325 0.332,-0.325 0,-0.348 0,-0.348 0,-0.348 0,0 0,0 0,-0.33 0,0 0,0 0.339,-0.338 v -0.33 -0.343 c 0.329,-0.33 0.329,-0.33 0.329,-0.33 v -0.343 c 0,0 0,0 0,-0.325 l 0.344,-0.348 v -0.32 c 0,-0.353 0,-0.353 0.332,-0.353 v -0.325 c 0,0 0,0 0,-0.353 0,0 0,0 0,-0.315 0.334,0 0.334,-0.348 0.334,-0.348 v -0.339 -0.339 c 0.341,0 0.341,0 0.341,0 0,-0.334 0,-0.334 0,-0.668 0,0 0,-0.334 0.332,-0.334 v -0.339 -0.339 c 0,0 0,0 0.339,0 0,-0.334 0,-0.668 0,-1.002 0.339,0 0.339,-0.339 0.339,-0.339 v -0.334 0 c 7.735,-19.163 19.163,-36.656 33.624,-50.771 17.481,-17.488 39.341,-30.944 63.553,-38.002 0.336,0 0.336,0 0.67,0 1.682,-0.668 3.027,-1.007 4.714,-1.341 0.332,0 0.332,0 0.67,0 0.336,-0.334 0.67,-0.334 1.004,-0.334 0,0 0.336,0 0.336,-0.348 0.339,0 0.339,0 0.67,0 0.341,0 0.341,0 0.675,0 0,0 0.336,0 0.336,-0.325 0.332,0 0.332,0 0.673,0 h 0.329 v 0 c 0.346,0 0.346,-0.348 0.683,-0.348 h 0.341 c 0.329,0 0.329,0 0.67,0 0.33,0 0.67,-0.325 1.002,-0.325 0.336,0 0.336,0 0.672,0 0,0 0,0 0.339,0 0,-0.348 0,-0.348 0,-0.348 0.334,0 0.334,0 0.673,0 h 0.334 c 0.67,0 1.004,-0.32 1.677,-0.32 0.339,0 0.339,0 0.683,0 0.334,0 0.668,-0.348 1.007,-0.348 h 0.336 c 0.336,0 0.336,0 0.67,0 h 0.336 c 0.334,-0.33 0.668,-0.33 0.668,-0.33 0.336,0 0.336,0 0.675,0 0.334,0 0.673,0 1.007,0 l 0.339,-0.348 c 0.332,0 0.332,0 0.332,0 0.341,0 0.68,0 1.019,0 v 0 h 0.334 c 0.334,0 0.334,0 0.67,0 l 0.334,-0.32 v 0 c 0.336,0 0.673,0 0.673,0 0.339,0 0.339,0 0.673,0 h 0.336 c 0,0 0,0 0.334,0 0,0 0,0 0.334,0 0,0 0.344,0 0.673,0 l 0.339,-0.348 h 0.334 0.336 0.336 c 0.341,0 0.678,0 1.012,0 h 0.338 v 0 h 0.337 c 0.334,0 0.334,0 0.668,0 h 0.336 c 0.336,-0.329 0.336,-0.329 0.336,-0.329 0.336,0 0.336,0 0.336,0 0.339,0 0.339,0 0.673,0 h 0.339 c 0.334,0 0.334,0 0.673,0 v 0 c 0.334,0 0.334,0 0.67,0 0.334,0 0.675,0 1.346,0 0,0 0,0 0.334,0 0.341,0 1.012,0 1.346,0 0.339,0 0.339,0 0.339,0 h 0.339 c 0.334,0 0.334,0 0.668,0 h 0.336 c 0.334,0 0.334,0 0.334,0 0.336,0 0.336,0 0.336,0 0.673,0 1.01,0 1.68,0 v 0 h 0.342 v 0 0 h 0.336 v 0 0 h 0.339 v 0 0 0 c 0,0 0,0 0.337,0 v 0 0 c 0,0 0,0 0.329,0 v 0 0 0 0 c 0.344,0 0.344,0 0.344,0 v 0 0 c 0.334,0 0.334,0 0.334,0 v 0 0 c 0.334,0 0.334,0 0.334,0 v 0 0 0 h 0.339 v 0 0 h 0.334 v 0 0 c 0.339,0 0.339,0 0.339,0 v 0 0 c 0,0 0,0 0.334,0 v 0 0 c 0,0 0,0 0.334,0 v 0 0 0 0 c 0.334,0 0.334,0 0.334,0 v 0 0 c 0.334,0 0.334,0 0.334,0 v 0 0 c 0.334,0 0.334,0 0.334,0 v 0 0 0 c 0.344,0 0.344,0 0.344,0 h 0.334 v 0 c 0,0 0,0 0.343,0 v 0 c 0,0 0,0 0.334,0 v 0 0 c 0.334,-22.532 18.152,-40.693 41.695,-40.693 11.768,0 22.193,4.714 29.595,12.106 1.336,1.012 2.348,2.019 3.698,3.03 1.007,1.007 2.009,2.014 3.354,3.359 1.012,0.673 2.353,1.685 3.364,3.03 1.012,1.012 2.353,2.009 3.363,3.021 1.346,1.017 2.357,2.019 3.364,3.04 1.341,0.992 2.353,2.014 3.354,3.006 1.346,1.026 2.367,2.033 3.369,3.04 1.341,1.011 2.353,2.009 3.693,3.021 1.017,1.016 2.367,2.014 3.369,3.025 1.012,1.017 2.348,2.014 3.359,3.359 1.346,0.673 2.356,1.694 3.363,3.035 1.346,0.668 2.353,1.68 3.364,3.025 1.346,1.007 2.353,2.019 3.364,3.021 1.341,1.021 2.353,2.023 3.698,3.035 1.012,0.998 2.353,2.019 3.359,3.025 1.007,1.012 2.356,2.019 3.368,3.025 1.007,1.007 2.348,2.009 3.359,3.035 1.341,0.998 2.357,2.014 3.364,3.011 1.341,1.016 2.353,2.014 3.354,3.369 1.355,0.673 2.357,1.685 3.703,3.025 1.012,1.012 2.357,2.014 3.359,3.035 1.012,0.998 2.361,2.014 3.364,3.011 1.007,1.021 2.353,2.018 3.364,3.035 1.345,1.011 2.348,2.014 3.358,3.025 1.346,1.012 2.353,2.014 3.369,3.025 1.346,1.017 2.348,2.009 3.693,3.035 1.012,0.997 2.357,2.014 3.364,3.021 1.012,1.007 2.353,2.019 3.364,3.359 1.007,0.668 2.356,1.68 3.363,3.025 1.341,1.017 2.353,2.014 3.359,3.035 1.346,0.998 2.357,2.014 3.364,3.006 1.346,1.021 2.353,2.033 3.698,3.04 1.012,1.012 2.353,2.014 3.364,3.025 1.007,1.012 2.353,2.023 3.359,3.021 1.012,1.017 2.357,2.014 3.359,3.04 1.35,1.002 2.356,2.014 3.368,3.354 1.346,0.668 2.353,1.68 3.364,3.025 1.341,0.673 2.353,2.028 3.698,3.021 1.012,1.021 2.357,2.023 3.359,3.04 1.002,1.007 2.357,2.014 3.364,3.025 1.007,1.007 2.353,2.009 3.359,3.021 1.341,1.007 2.361,2.009 3.368,3.04 1.341,0.993 2.353,2.009 3.354,3.006 1.021,1.023 2.033,1.696 3.04,2.698 z" id="path6" style="clip-rule:evenodd;fill:#3d3d45;fill-rule:evenodd"/><path d="m 256.168,114.433 c 81.713,0 147.955,66.246 147.955,148.296 0,81.701 -66.241,147.938 -147.955,147.938 -82.047,0 -148.289,-66.236 -148.289,-147.938 10e-4,-82.051 66.242,-148.296 148.289,-148.296 z" id="path8" style="clip-rule:evenodd;fill:#90dfaa;fill-rule:evenodd"/><path d="m 256.168,113.092 c 41.02,0 78.344,16.815 105.582,43.723 26.898,27.223 43.714,64.547 43.714,105.914 0,41.018 -16.815,78.676 -43.714,105.574 -27.237,27.236 -64.562,43.709 -105.582,43.709 -41.361,0 -78.69,-16.473 -105.92,-43.709 -26.898,-26.898 -43.716,-64.557 -43.716,-105.574 0,-41.366 16.818,-78.691 43.716,-105.914 27.23,-26.908 64.559,-43.723 105.92,-43.723 z m 103.902,45.737 c -26.903,-26.574 -63.55,-43.046 -103.902,-43.046 -40.691,0 -77.34,16.472 -103.904,43.046 -26.564,26.55 -43.036,63.207 -43.036,103.9 0,40.345 16.472,77.33 43.036,103.895 26.564,26.565 63.213,43.051 103.904,43.051 40.352,0 76.999,-16.486 103.902,-43.051 26.56,-26.564 42.697,-63.55 42.697,-103.895 10e-4,-40.694 -16.137,-77.351 -42.697,-103.9 z" id="path10" style="fill:#324a5e"/><path d="m 372.506,218.351 c 1.012,0.668 2.022,1.346 2.691,2.014 1.011,0 1.684,0 2.69,0 0,-1.699 0,-3.374 0,-5.053 2.357,0 5.049,-0.334 7.74,-0.668 2.353,2.014 5.039,3.708 7.396,5.721 1.68,0 3.359,0 5.035,0 -1.342,-4.719 -3.021,-9.434 -4.701,-13.786 -1.345,-1.021 -2.356,-2.362 -3.363,-3.374 -0.334,-1.68 -0.334,-3.354 -0.673,-5.034 0,-0.673 -0.334,-1.346 -0.673,-1.694 -1.346,0.348 -2.353,1.021 -3.703,1.694 -0.663,3.021 -1.341,5.712 -2.009,8.732 -2.023,-2.019 -4.037,-4.366 -6.056,-6.385 0,-2.028 0,-4.042 0,-6.055 -2.019,-1.341 -4.041,-3.03 -5.721,-4.71 -0.668,-0.668 -1.68,-1.341 -2.348,-2.009 -2.014,0 -4.371,0 -6.395,0 0.673,1.675 1.351,3.688 2.023,5.717 2.691,1.67 5.383,3.016 8.064,4.361 0.334,0.668 0.678,1.016 1.354,1.689 -0.677,0.339 -1.354,0.339 -1.688,0.673 0,1.675 0,3.354 0,4.7 -1.346,0.673 -2.691,1.016 -4.032,1.694 -1.007,-0.353 -2.019,-0.353 -3.369,-0.678 -0.668,-1.016 -1.341,-2.018 -2.014,-3.03 2.014,0 3.703,0.334 5.383,0.334 0.673,-0.668 1.007,-1.346 1.685,-2.014 -4.042,-2.701 -8.074,-5.387 -12.111,-8.069 -0.334,-1.012 -0.668,-2.357 -1.007,-3.369 -1.68,1.346 -3.03,3.025 -4.71,4.381 -1.68,-0.344 -3.358,-0.673 -5.043,-1.012 -2.353,3.354 -5.039,6.389 -7.396,9.749 -0.673,1.346 -1.007,2.687 -1.351,3.708 -1.67,0.325 -3.359,0.325 -5.039,0.668 -2.353,0 -4.709,0 -7.062,0 -1.341,-0.668 -2.682,-1.346 -4.037,-2.023 -0.668,-2.687 -1.012,-5.712 -1.336,-8.398 0.324,-1.345 1.002,-2.691 1.336,-4.046 2.696,-0.668 5.049,-1.002 7.405,-1.68 2.683,0.678 5.039,1.012 7.73,1.68 0.334,-1.346 0.678,-3.025 1.002,-4.366 -1.002,-0.334 -2.348,-0.668 -3.359,-0.668 0.334,-2.367 0.678,-4.705 1.346,-7.067 2.357,-0.339 5.044,-0.673 7.74,-1.007 2.014,-2.691 3.693,-5.382 5.716,-8.074 1.676,-0.324 3.693,-0.324 5.717,-0.678 1.68,0 3.354,0.354 5.039,0.678 0.678,0 1.346,0 2.014,0 -0.334,-2.338 -0.668,-5.044 -1.002,-7.392 -2.357,0.673 -4.371,1.675 -6.39,2.348 -0.668,-1.675 -1.685,-3.354 -2.356,-5.368 -1.008,0 -2.354,-0.343 -3.698,-0.343 0,-1.341 -0.334,-2.682 -0.673,-4.027 1.012,-1.021 2.018,-2.028 3.025,-3.04 1.346,-0.668 2.352,-1.007 3.702,-1.341 -26.229,-23.539 -60.863,-38.002 -98.858,-38.002 -24.212,0 -46.742,5.73 -66.58,15.809 2.691,0 5.378,0 8.41,0 1.341,1.689 2.684,3.703 4.032,5.373 2.019,0.348 4.369,0.348 6.723,0.682 1.351,-1.355 2.691,-2.696 4.037,-4.042 1.004,0.348 2.016,1.017 3.028,1.346 -2.023,2.014 -3.703,3.703 -5.714,5.721 0,0 -7.737,0 -7.403,0 0.336,0 0.678,5.373 0.678,5.373 3.354,0 6.387,-0.32 9.412,-0.32 0.336,-0.673 0.67,-1.694 1.004,-2.372 2.36,-0.334 4.375,-0.334 6.726,-0.668 0,-1.007 0.334,-2.348 0.673,-3.693 -1.344,-0.339 -2.689,-0.339 -4.027,-0.673 0.668,-1.007 1.004,-2.353 1.338,-3.369 1.011,-0.329 2.016,-0.668 3.027,-0.998 3.362,0.33 6.728,0.33 10.09,0.668 -1.684,1.67 -3.708,3.364 -5.38,5.043 0,1.341 0.334,2.687 0.67,4.032 2.025,0.334 4.034,0.334 6.048,0.682 -0.332,-2.367 -0.332,-4.714 -0.332,-7.067 1.677,-1.021 3.703,-2.019 5.378,-3.03 3.371,-0.33 6.726,-0.678 10.09,-1.002 4.707,2.013 9.415,4.366 14.125,6.384 0,1.68 0,3.688 0,5.387 1.68,0.325 3.359,0.993 4.704,1.341 -0.668,1.341 -1.345,2.691 -2.356,4.366 -2.014,0 -4.366,0 -6.388,0 -0.67,1.341 -1.34,3.025 -2.013,4.705 -4.708,-1.007 -9.756,-2.353 -14.79,-3.364 4.032,-2.009 7.728,-4.037 11.76,-6.375 -1.678,-1.021 -3.025,-2.372 -4.366,-3.712 -3.362,0.339 -6.726,1.007 -10.09,1.341 -0.339,0.344 -0.675,0.678 -1.009,1.026 v 0 0 c -1.004,0.998 -2.016,2.014 -3.028,3.011 -1.685,0.343 -3.362,0.343 -4.707,0.343 1.684,10.431 -2.023,1.002 -13.447,4.71 -11.102,6.389 -22.869,13.785 -0.673,17.14 0,12.106 2.016,11.099 6.726,1.341 2.687,-0.992 5.371,-2.009 8.403,-2.682 0,-3.364 0,-7.066 0,-10.426 1.348,-0.998 2.687,-2.353 4.376,-3.359 3.693,0.668 7.394,1.68 10.755,2.362 0,2.338 -0.339,4.705 -0.668,7.057 1.002,0 2.016,0 3.025,0 2.687,-1.341 5.378,-2.7 8.072,-4.046 0,3.035 0,6.06 0.334,9.085 2.013,1.341 3.698,2.362 5.714,3.708 0,1.665 0,3.354 0,5.373 -2.017,0.334 -4.037,1.002 -5.714,1.679 0,0.668 0.334,1.346 0.334,2.014 2.352,1.012 4.368,2.028 6.726,3.021 0,1.026 0,2.372 0,3.708 -0.673,0 -1.346,0 -2.014,0 v 0 c -3.033,-1.021 -5.719,-1.689 -8.749,-2.682 0,-1.026 0,-1.694 -0.334,-2.687 v 0 c 1.009,-0.677 1.68,-1.021 2.691,-1.694 0,-1.011 0,-1.68 0,-2.691 -1.012,0 -2.016,-0.334 -2.691,-0.668 -0.336,1.002 -0.336,1.679 -0.67,2.348 -1.685,0.338 -3.027,0.677 -4.707,0.677 -0.341,0 -0.341,0 -0.341,0 0,0 0,0 0,0.334 -0.673,0 -1.346,0 -1.675,0 -0.678,-0.673 -1.012,-1.68 -1.348,-2.691 -0.673,0 -1.009,-0.334 -1.68,-0.668 -1.004,0 -2.023,0 -3.366,0 -0.334,0.668 -1.009,1.002 -1.343,1.345 0,1.002 0,2.014 0,2.687 1.009,0.344 1.682,0.673 2.687,1.021 1.019,0.32 2.023,0.32 3.03,0.32 -0.336,0.349 -0.673,0.349 -0.673,0.349 -1.004,0.992 -1.677,2.018 -2.688,3.011 -0.339,-0.673 -0.673,-0.993 -1.012,-1.666 -1.009,0 -1.677,-0.353 -2.684,-0.353 -2.026,2.019 -4.376,4.051 -6.724,6.06 0.33,0.334 0.67,0.678 1.002,1.007 -3.367,1.685 -6.721,3.708 -10.09,5.378 -3.021,3.369 -6.385,6.733 -9.41,9.753 -0.339,1.689 -0.339,3.035 -0.673,4.375 -3.027,2.023 -6.389,4.371 -9.419,6.39 -1.679,1.341 -3.021,3.021 -4.707,4.709 0,3.03 0.336,6.051 0.336,9.41 -2.016,-1.011 -4.032,-2.014 -6.39,-3.025 0,-2.019 0,-3.693 0,-5.712 -6.053,0 -12.101,0 -17.82,0 -3.362,1.67 -6.387,3.359 -9.417,5.039 -1.341,2.353 -2.684,4.714 -4.035,7.401 -0.67,2.019 -1.346,4.032 -1.682,5.712 0.67,2.014 1.682,4.042 2.693,6.064 2.355,0.32 4.705,0.32 7.401,0.668 3.693,-2.362 7.728,-5.049 11.428,-7.745 0.339,1.351 0.678,2.696 1.351,4.037 -1.351,2.014 -2.701,4.38 -3.708,6.728 3.035,0.334 6.058,1.011 8.751,1.341 0.334,4.709 0.673,9.076 1.004,13.791 4.032,0.673 8.069,1.341 12.106,2.018 12.439,-14.124 29.582,-6.06 40.35,5.707 0.334,0 0.673,0 0.673,0.349 19.499,9.41 5.711,10.751 23.873,17.817 4.709,0 9.08,0 13.441,0 1.351,2.014 2.701,4.381 4.042,6.399 2.019,0.668 4.032,1.341 6.056,2.009 -0.334,1.685 -0.668,3.698 -1.346,5.378 -2.019,2.687 -4.371,5.378 -6.385,8.407 -0.678,6.051 -1.355,12.106 -2.023,18.49 -2.019,1.346 -3.693,3.03 -5.717,4.376 -3.025,0 -6.06,0 -8.741,0 -1.012,1.68 -2.017,3.359 -3.028,5.044 0.676,3.021 1.351,6.38 2.017,9.419 -3.025,4.022 -6.387,8.06 -9.41,12.44 -1.012,1.675 -2.021,3.693 -3.027,5.373 -3.028,1.689 -6.053,3.035 -9.078,4.375 -2.021,0.33 -4.032,0.674 -6.056,1.003 0,1.016 -0.339,1.688 -0.339,2.695 1.355,0.334 3.035,0.678 4.374,1.007 -0.334,1.012 -0.334,2.019 -0.668,2.687 -1.343,1.346 -2.35,2.362 -3.706,3.708 0.673,0.997 1.689,2.019 2.362,3.016 1.343,0 3.021,0 4.364,0 0,1.017 0,2.362 -0.332,3.374 -0.339,1.336 -0.673,2.348 -1.012,3.692 0,0.674 -0.334,1.689 -0.334,2.683 2.019,2.014 4.371,3.707 6.728,5.721 -0.344,1.012 -0.678,2.019 -1.012,2.691 -3.021,0 -6.055,0 -9.076,0 -3.028,-2.691 -6.056,-5.373 -9.081,-8.064 -2.353,-4.041 -4.71,-8.073 -7.065,-12.439 0.339,-3.708 0.673,-7.74 1.01,-11.772 -1.682,-2.356 -3.696,-4.714 -5.38,-7.062 0.67,-4.027 1.348,-8.064 2.016,-12.106 -1.004,-0.338 -2.016,-0.672 -3.028,-1.012 0,-8.746 0,-17.488 0,-26.22 0,0 -9.069,-6.724 -9.412,-6.724 -0.668,0 -4.709,-1.351 -4.709,-1.351 -0.334,-1.346 -0.668,-3.025 -1.007,-4.705 -3.701,-5.039 -7.728,-9.758 -11.431,-14.792 0.336,-1.694 0.673,-3.359 1.009,-5.049 0.336,-2.691 0.336,-5.717 0.336,-8.407 2.691,-2.023 5.378,-4.037 8.067,-5.717 -0.336,-3.359 -0.673,-6.385 -1.009,-9.415 -4.03,-0.329 -7.73,-0.678 -11.767,-1.002 -3.028,-3.368 -6.051,-7.066 -9.076,-10.426 -2.357,-0.673 -4.375,-1.341 -6.728,-2.014 -1.341,0 -2.691,-0.349 -4.034,-0.683 0,-1.346 0.336,-2.353 0.336,-3.698 -1.682,-0.329 -3.359,-0.668 -5.383,-0.668 0,0.668 0,1.341 0,2.014 -4.366,-1.002 -8.739,-2.357 -13.115,-3.364 -2.016,-2.682 -3.69,-5.368 -5.373,-8.074 0.67,-1.341 1.345,-2.682 2.016,-4.022 -2.694,-4.371 -5.722,-8.417 -8.408,-12.45 -0.336,-3.025 -1.014,-6.055 -1.348,-9.076 -1.343,0 -2.35,0 -3.693,0 0.668,3.021 1.009,6.05 1.343,8.742 2.018,3.025 3.698,6.046 5.716,9.081 0,1.346 -0.336,2.357 -0.673,3.703 -1.682,-0.344 -3.366,-0.678 -4.709,-1.012 -2.019,-3.359 -4.374,-6.729 -6.387,-10.426 0,-4.037 0,-8.06 0,-12.106 -2.016,-1.002 -4.037,-2.014 -6.387,-3.025 0,-1.016 0,-2.014 0,-3.03 -6.392,16.815 -10.09,35.306 -10.09,54.479 0,81.701 66.241,147.938 148.289,147.938 47.41,0 89.778,-22.184 116.671,-56.817 0,-1.685 0,-3.358 0,-4.719 -2.014,-2.682 -3.693,-5.373 -5.707,-8.06 0,-4.032 0,-8.064 0,-12.105 -1.689,-1.68 -3.03,-3.021 -4.376,-4.366 -0.339,-1.694 -0.339,-3.359 -0.673,-5.378 2.019,-3.374 4.037,-7.063 5.727,-10.77 -3.369,-6.385 -7.063,-12.445 -10.766,-18.83 0.668,-4.365 1.002,-8.741 1.336,-12.773 -3.354,-0.334 -6.385,-0.673 -9.743,-1.007 -1.012,-1.346 -2.357,-2.701 -3.359,-3.698 -2.357,0 -4.376,0 -6.729,0 -0.344,0.324 -1.012,0.997 -1.68,1.351 -0.334,0.668 -1.012,1.341 -1.346,1.675 -54.14,0 -27.914,-54.803 -9.08,-65.234 1.007,0 2.014,0.33 3.364,0.33 2.014,0 4.365,0 6.728,0 1.67,-0.998 3.359,-2.014 5.378,-2.691 5.712,-0.668 11.428,-0.993 17.145,-1.346 0,2.696 0,5.731 0,8.751 4.376,1.009 9.086,2.35 13.452,3.376 z" id="path12" style="clip-rule:evenodd;fill:#84dbff;fill-rule:evenodd"/><path d="m 373.518,217.325 2.018,1.694 h 1.007 v -4.714 l 9.086,-1.002 0.668,0.334 7.062,5.382 h 3.025 l -1.68,-5.048 c -1.007,-2.353 -1.68,-4.376 -2.69,-6.724 l -3.025,-3.364 -0.339,-0.678 -0.334,-4.714 -0.334,-0.32 -1.685,1.002 -2.691,10.421 -7.396,-8.069 -0.339,-1.007 -0.334,-0.668 -2.352,1.341 0.334,4.709 -4.705,2.023 h -1.002 l -3.04,-0.678 -1.002,-0.668 -3.364,-5.053 7.063,0.334 0.344,-0.334 -10.766,-7.391 -0.678,-0.673 -0.334,-1.351 -3.697,3.369 -4.71,-1.017 -7.058,9.076 -1.351,4.032 2.019,-1.346 h 0.344 l 18.824,-1.675 v 9.419 l 12.436,3.021 z m 1.01,4.037 -2.356,-2.019 -14.459,-3.359 v -8.413 l -15.465,1.021 -5.044,2.687 -0.668,0.339 c -3.703,0 -6.39,0 -10.092,-0.339 -7.058,4.032 -15.132,15.131 -19.502,26.569 -2.019,5.382 -3.025,11.08 -2.357,16.467 0.678,5.039 2.691,9.754 6.728,13.112 4.7,4.047 12.445,6.381 23.534,6.381 l 3.035,-2.683 0.668,-0.324 h 6.729 l 0.668,0.324 3.364,3.369 10.416,1.007 -1.346,13.785 11.1,19.164 -6.051,11.094 0.339,4.381 4.71,4.371 v 12.439 l 5.382,7.396 0.334,0.997 v 4.719 l -0.334,0.673 c -13.79,17.822 -31.946,32.605 -52.46,42.359 -19.507,9.758 -42.029,15.131 -65.232,15.131 -41.361,0 -78.69,-16.473 -105.92,-43.709 -26.898,-26.898 -43.716,-64.557 -43.716,-105.574 0,-9.754 1.007,-19.173 2.696,-28.254 1.68,-9.076 4.364,-18.151 7.73,-26.903 l 2.35,0.678 v 2.362 l 6.392,3.025 v 12.44 l 5.716,9.744 3.028,0.344 0.338,-1.689 -5.382,-8.732 -0.334,-0.343 -1.346,-10.421 h 6.051 l 1.682,10.087 8.744,12.784 -2.353,3.693 4.703,7.387 11.428,2.706 v -2.023 l 8.076,1.341 -0.675,3.703 c 3.366,0.668 6.05,1.341 9.751,2.362 l 0.344,0.329 9.071,10.082 12.106,1.012 1.35,11.434 -8.074,5.712 c -0.336,5.716 -0.336,7.4 -1.343,12.788 l 11.092,13.785 0.341,0.668 0.668,4.032 3.701,1.012 c 1.007,0 10.087,7.063 10.087,7.063 l 0.673,0.334 v 25.892 l 3.362,1.006 -2.35,12.779 5.039,6.385 0.338,1.016 -1.011,11.772 6.723,11.771 8.413,7.387 7.732,0.339 0.339,-1.341 -6.389,-5.717 c 0.334,-3.368 0.334,-3.707 1.677,-6.723 v -2.023 l -3.693,-0.334 -3.367,-4.032 4.376,-4.376 v -1.007 l -4.037,-1.341 0.334,-4.376 7.06,-1.016 8.408,-4.366 c 4.037,-7.058 7.06,-10.412 12.106,-17.146 l -2.021,-8.746 0.337,-1.012 3.025,-5.712 9.08,0.329 5.383,-4.031 1.675,-18.152 0.339,-0.673 6.39,-8.073 0.678,-3.693 -4.705,-1.68 -0.678,-0.673 -3.698,-5.722 -12.778,-0.339 h -0.334 c -9.756,-3.693 -10.761,-5.712 -12.106,-8.397 -1.348,-2.362 -2.691,-4.72 -11.771,-9.434 l -0.673,-0.315 -0.336,-0.354 c -1.338,-1.341 -2.684,-2.338 -4.035,-3.684 -5.034,-4.38 -10.753,-7.405 -16.472,-8.407 -5.717,-1.021 -11.102,0 -16.146,4.705 -0.673,0.668 -1.341,1.34 -2.016,2.014 l -0.334,0.334 -14.122,-2.348 -0.678,-13.791 -9.746,-1.341 4.034,-8.074 -0.336,-1.679 -10.09,6.718 -1.011,0.348 -8.069,-1.021 -3.025,-6.384 v -0.673 l 1.68,-6.38 4.04,-7.401 0.673,-0.678 9.41,-4.709 h 0.675 19.17 v 5.721 l 3.696,2.018 -0.339,-8.064 c 6.053,-6.06 6.723,-6.06 14.122,-11.099 l 0.678,-3.708 0.339,-0.673 9.412,-9.753 0.334,-0.324 8.41,-4.71 -0.675,-0.344 8.41,-8.055 2.348,0.668 -2.011,-0.668 v -4.385 l 2.011,-1.675 h 0.673 3.366 0.67 l 1.346,0.672 0.668,0.668 0.673,1.011 v 0 l 1.687,0.334 3.695,-0.334 0.673,-2.687 5.046,1.007 v 0.668 l 4.374,-1.341 v -3.693 l -5.719,-3.713 -0.339,-7.735 -6.05,3.03 -0.671,0.339 h -4.373 l 0.67,-7.401 -9.076,-2.019 -3.701,2.687 v 10.779 l -8.405,2.687 c -2.357,5.039 -4.374,7.725 -6.05,7.725 -2.023,0 -2.694,-3.021 -3.03,-9.066 -11.433,-1.694 -14.122,-5.054 -12.104,-9.085 1.682,-3.359 7.737,-7.067 13.452,-10.426 h 0.336 c 5.711,-1.694 9.415,-0.668 11.76,0 0.683,0.334 1.353,0.673 1.353,0.673 0,-0.339 -0.329,-1.012 -0.67,-3.708 l -0.337,-1.341 5.712,-0.329 c 1.351,-1.341 2.36,-2.362 3.03,-3.708 h 0.336 l 0.334,-0.334 0.67,-0.339 10.763,-1.341 6.389,5.373 -10.429,5.726 10.429,2.348 1.68,-4.714 h 6.726 l 1.002,-2.343 -3.688,-1.016 v -5.707 l -13.452,-5.716 -9.419,1.002 -4.71,2.362 0.673,8.06 -8.405,-1.341 -1.341,-5.373 4.037,-3.708 -7.065,-0.33 -2.016,0.673 -0.339,1.346 3.367,0.673 -1.012,6.046 -6.726,0.348 -1.012,2.682 -11.765,0.33 v -1.346 c 0,0 1.007,-4.032 0.67,-4.032 v -2.682 h 7.064 l 3.696,-4.037 -0.334,-0.343 -4.04,3.703 -7.732,-0.334 -4.032,-5.387 h -7.735 l -0.672,-2.687 c 10.424,-5.039 21.188,-9.081 32.617,-11.767 11.097,-2.696 22.53,-4.037 34.636,-4.037 18.827,0 36.654,3.698 53.122,9.758 17.488,6.714 32.958,16.472 46.409,28.573 l 1.68,1.346 -5.383,2.019 -2.348,2.696 0.668,2.019 3.359,0.673 2.023,5.034 6.719,-2.682 1.351,10.412 c -3.364,0 -4.71,-0.324 -8.403,-0.992 l -5.049,0.992 -5.716,7.74 -7.396,1.341 -0.668,4.714 3.359,0.678 -1.689,6.724 -8.732,-1.689 -6.394,1.346 -1.012,3.035 1.012,7.392 3.364,1.684 h 6.723 l 4.037,-0.343 1.002,-3.021 0.344,-0.344 8.064,-10.417 5.048,1.002 5.717,-5.368 1.341,5.034 12.106,8.074 v -1.007 l 0.673,-0.339 v -0.334 l -7.73,-4.375 -0.678,-0.673 -2.687,-7.392 h 8.408 l 1.012,0.334 2.014,2.019 6.05,5.383 0.344,6.05 4.032,4.032 1.675,-6.719 5.049,-3.035 1.68,3.035 v 0.325 l 0.673,4.714 3.029,3.364 v 0.325 c 1.002,2.023 2.014,4.385 2.682,6.733 0.673,2.353 1.689,4.705 2.362,7.058 l 0.334,1.346 h -6.724 -0.668 l -7.071,-5.378 -6.385,0.673 v 4.705 h -3.702 -0.674 z m 1.007,-21.85 v -4.38 c -2.695,-2.009 -4.709,-4.032 -7.057,-6.38 h -4.376 l 1.341,3.693 7.396,4.38 0.344,0.32 z m -4.709,4.705 v -2.357 l -2.014,2.691 -3.369,-0.334 0.339,0.668 2.357,0.339 z m -32.62,3.708 c -4.37,0.325 -7.392,0.325 -12.101,0.668 l -0.334,-0.343 -5.039,-2.348 -1.346,-9.076 v -0.677 l 2.014,-4.371 7.734,-2.023 h 0.674 l 6.384,1.346 0.678,-1.68 -3.369,-1.007 1.346,-8.742 8.408,-1.346 5.383,-7.725 6.389,-1.026 h 0.339 l 5.039,0.678 h 0.344 l -0.678,-4.371 -5.712,2.352 -2.362,-5.707 -4.036,-0.672 -1.007,-5.387 3.363,-3.698 0.674,-0.334 1.68,-0.673 c -13.113,-11.099 -27.905,-20.18 -44.049,-26.23 -16.472,-6.389 -33.955,-9.749 -52.453,-9.749 -11.77,0 -23.208,1.346 -33.963,4.032 -9.415,2.014 -18.49,5.048 -26.9,9.081 h 3.028 l 4.368,5.721 5.383,0.325 4.373,-4.356 5.044,2.348 v -0.33 l 3.693,-1.021 h 0.338 l 13.457,0.349 -3.367,3.011 5.717,-3.011 h 0.668 l 9.756,-1.346 0.672,0.324 15.132,6.733 v 5.039 l 5.377,1.346 -3.363,6.394 h -6.39 l -2.016,5.373 -16.136,-3.693 -0.338,-2.353 10.087,-5.373 -2.691,-2.372 -8.742,1.351 -3.698,3.703 -1.012,0.329 -3.362,0.349 c 0.339,3.688 0,4.7 -1.675,5.034 -0.67,0 -1.348,0 -2.364,-0.334 -2.014,-0.673 -5.378,-1.685 -10.078,-0.334 -5.383,3.021 -11.102,6.728 -12.44,9.415 -1.011,2.014 1.339,4.037 11.429,5.377 h 1.012 v 1.341 c 0,5.049 0,7.406 0.334,7.406 0.67,0 2.016,-2.357 4.032,-6.733 l 0.334,-0.673 7.742,-2.352 v -10.087 l 5.38,-4.032 12.774,3.025 -1.014,6.398 h 1.348 l 9.415,-4.719 0.67,10.426 5.72,3.708 -0.334,6.714 -5.386,2.018 c 0,0 6.054,2.687 7.056,3.035 l -0.334,5.711 -4.025,0.334 -0.339,-0.334 -8.405,-2.701 c -0.339,-1.341 -0.339,-3.011 -0.339,-4.356 l 1.009,-0.683 -8.071,1.36 -1.68,-3.374 -1.007,-0.334 h -2.357 l -0.673,0.668 v 1.345 l 1.685,0.334 2.688,0.683 0.339,2.338 h -0.339 l -3.361,4.051 -1.685,-2.357 -1.675,-0.348 -5.046,4.714 1.007,1.007 -11.435,6.399 -9.079,9.4 -0.332,4.705 -10.095,6.394 -4.027,4.037 0.671,11.094 -9.417,-4.366 v -5.039 H 172.44 l -8.405,4.366 -4.035,7.057 -1.346,5.383 2.019,4.719 6.385,0.668 12.781,-8.408 1.348,5.711 v 0.683 l -2.691,5.373 8.071,1.341 1.007,13.791 10.426,1.68 1.341,-1.346 c 5.716,-5.388 12.105,-6.724 18.495,-5.712 6.392,0.997 12.444,4.705 17.822,9.07 1.346,1.355 2.687,2.696 4.032,4.047 h 0.339 c 10.085,5.039 11.767,8.06 13.11,10.422 1.011,2.343 2.018,4.031 10.429,7.391 h 13.78 l 4.376,6.719 6.39,2.014 -1.346,6.733 -0.334,0.334 -6.051,8.078 -2.023,18.82 -6.395,4.709 -0.668,0.344 h -8.068 l -2.351,3.698 2.017,9.754 -9.756,12.773 -3.025,5.378 -0.673,0.668 -9.081,4.385 h -0.332 l -5.039,0.668 v 0.673 l 4.366,1.007 -0.673,4.032 -0.339,0.668 -3.021,2.701 1.346,1.675 h 5.043 l -0.334,5.049 v 0.329 l -1.019,3.359 -0.332,1.684 6.721,5.722 -1.338,4.705 h -10.087 l -1.017,-0.334 -9.076,-8.079 v -0.324 l -7.06,-12.439 -0.336,-0.673 1.009,-11.442 -5.382,-7.058 2.016,-11.768 -3.021,-0.673 v -26.563 l -8.074,-6.046 c -1.004,0 -5.043,-1.346 -5.043,-1.346 h -0.673 l -1.005,-5.717 -11.767,-14.807 1.002,-5.712 0.675,-8.746 7.733,-5.717 -1.009,-7.721 -10.424,-0.678 -1.012,-0.668 -8.739,-10.102 -6.053,-1.67 -5.38,-1.017 0.334,-3.693 -2.684,-0.339 v 2.353 l -14.8,-3.693 -1.007,-0.673 -5.716,-8.751 2.355,-4.022 -8.076,-11.772 -0.334,-0.334 -1.343,-8.078 h -0.673 l 0.673,7.067 5.721,8.747 0.334,0.997 -1.009,4.715 -6.728,-1.012 -6.385,-11.094 v -0.673 -11.099 l -5.38,-2.687 c -2.691,7.392 -4.71,14.792 -6.392,22.513 -1.68,8.761 -2.35,18.17 -2.35,27.59 0,40.345 16.472,77.33 43.036,103.895 26.564,26.565 63.213,43.051 103.904,43.051 22.869,0 44.723,-5.388 64.22,-14.807 20.18,-10.078 37.658,-24.212 51.11,-41.691 v -3.697 l -5.378,-7.401 -0.339,-1.007 v -11.771 l -4.032,-4.032 -0.334,-0.668 -0.334,-5.054 v -0.668 l 5.378,-10.426 -10.427,-18.152 v -1.012 l 1.012,-11.433 -8.407,-1.007 -0.678,-0.334 -3.359,-3.021 h -5.383 l -3.025,2.682 -0.668,0.339 c -12.444,0 -20.519,-2.705 -25.9,-7.058 -4.7,-4.041 -7.058,-9.08 -7.73,-14.802 -0.334,-5.726 0.673,-11.771 2.691,-17.817 4.371,-12.106 13.451,-23.534 21.187,-27.915 l 0.673,-0.329 3.364,0.329 h 6.384 z m -121.383,-73.652 -5.712,5.721 -1.007,0.334 -6.055,0.334 c 0.334,1.007 0.334,2.019 0.334,2.691 l 7.732,-0.325 1.012,-2.367 6.05,-0.334 0.339,-1.68 -4.039,-0.668 z m 14.461,1.017 -3.698,3.359 0.329,2.353 3.708,0.668 z m 25.223,46.061 -0.339,-0.329 -2.019,1.346 0.334,0.992 7.738,2.372 h 0.334 v -1.694 z m -3.368,-1.346 1.011,-0.673 v -1.007 h -0.67 z m -13.111,3.035 -0.673,-0.348 0.673,0.348 v 0.32 l 0.332,-0.32 z" id="path14" style="fill:#324a5e"/><path d="m 304.251,72.408 c -25.214,0 -43.712,21.521 -41.022,46.062 1.341,12.44 11.094,25.233 18.156,37.325 7.739,13.112 15.804,25.557 23.539,38.341 4.7,-8.088 9.748,-16.486 14.463,-24.875 8.737,-15.484 27.566,-37.005 27.566,-53.477 0,-23.54 -18.495,-43.376 -42.702,-43.376 z m 0.334,56.488 v 0 h -0.334 v 0 0 0 h -0.334 v 0 h -0.339 v 0 h -0.334 v 0 0 0 h -0.339 v 0 h -0.339 v 0 h -0.334 v 0 -0.334 0 h -0.339 v 0 h -0.334 v 0 h -0.334 v 0 0 0 h -0.334 l -0.339,-0.339 v 0 h -0.334 v 0 0 0 h -0.339 v 0 h -0.339 v 0 l -0.329,-0.334 v 0 0 h -0.344 v 0 l -0.334,-0.339 v 0 H 298.2 v 0 0 l -0.334,-0.334 h -0.344 v 0 h -0.334 v -0.334 h -0.334 v 0 l -0.334,-0.339 v 0 0 l -0.334,-0.334 v 0 h -0.344 v 0 -0.334 h -0.334 v 0 l -0.334,-0.344 v 0 0 l -0.339,-0.334 h -0.339 v -0.334 l -0.334,-0.334 v 0 h -0.339 v -0.339 0 l -0.334,-0.334 v 0 h -0.334 v 0 -0.334 l -0.334,-0.348 v -0.325 h -0.339 v -0.348 l -0.334,-0.325 v -0.348 l -0.344,-0.32 v -0.348 h -0.334 v -0.33 l -0.334,-0.348 v -0.32 l -0.343,-0.348 v -0.329 l -0.334,-0.344 v -0.325 c -3.693,-10.426 4.036,-21.191 14.802,-21.191 h 0.334 0.339 l 0.334,0.334 h 0.334 0.673 0.334 0.343 0.334 l 0.334,0.339 h 0.335 0.334 0.334 l 0.339,0.339 v 0 h 0.682 v 0 l 0.334,0.334 v 0 h 0.334 0.334 v 0 l 0.339,0.338 h 0.339 v 0 l 0.334,0.334 v 0 h 0.334 v 0 l 0.334,0.334 v 0 0.338 h 0.334 v 0 l 0.334,0.334 v 0 l 0.344,0.338 v 0 h 0.334 l 0.334,0.339 0.339,0.33 v 0 h 0.334 v 0 0.338 0 l 0.334,0.33 v 0 l 0.344,0.343 0.339,0.334 v 0 0 l 0.334,0.334 0.339,0.334 v 0 0.338 l 0.339,0.344 v 0 l 0.329,0.329 v 0 0.339 0 l 0.344,0.334 v 0 0.344 0 l 0.329,0.324 v 0 0.354 0 l 0.334,0.319 v 0 0.349 0 l 0.344,0.324 v 0 0.349 0 l 0.334,0.324 v 0 0.349 0 0.324 0 l 0.334,0.349 v 0 0.319 0 0.349 0 0.324 0 l 0.334,0.354 v 0 0.668 0 0.339 0 0.334 0 0.338 0 0.334 0 0.668 0 0.343 0 0 0.33 0 0.334 0 0.334 0 0.343 0 0.668 0 0.338 0 0.334 0 l -0.334,0.344 v 0 0.329 0 0.339 0 0.33 h -0.334 v 0.682 0 0.329 0 l -0.334,0.348 v 0 0.325 0 0.344 0 l -0.344,0.329 v 0 0.348 0 l -0.334,0.32 v 0 0.348 0 l -0.329,0.33 v 0 l -0.344,0.348 v 0 0.32 0 l -0.329,0.348 v 0 0.325 0 l -0.339,0.348 v 0 h -0.339 v 0 l -0.334,0.325 v 0 0.348 0 l -0.339,0.334 -0.344,0.334 v 0 l -0.334,0.339 v 0 0 0 l -0.334,0.334 v 0 l -0.339,0.334 v 0 l -0.334,0.334 v 0 h -0.334 v 0 l -0.344,0.344 v 0 l -0.334,0.334 v 0 h -0.334 v 0.334 0 h -0.334 v 0 l -0.334,0.339 v 0 l -0.334,0.334 v 0 h -0.339 v 0 l -0.339,0.334 v 0 h -0.334 v 0 h -0.668 v 0 l -0.334,0.339 h -0.348 l -0.339,0.334 v 0 h -0.334 v 0 h -0.334 v 0 l -0.669,0.339 v 0 h -0.334 v 0 h -0.343 v 0 l -1.007,0.334 v 0 c -0.666,0.002 -1.339,0.002 -2.017,0.002 z" id="path16" style="clip-rule:evenodd;fill:#fd8469;fill-rule:evenodd"/><path d="m 304.585,128.896 c 8.741,0 15.804,-7.067 15.804,-15.46 0,-8.751 -6.729,-15.809 -15.126,-15.809 -10.766,0 -18.495,10.765 -14.802,21.191 3.029,7.391 8.751,10.078 14.124,10.078 z" id="path18" style="clip-rule:evenodd;fill:#4b4b55;fill-rule:evenodd"/></g></g><g id="Layer_1" transform="translate(-22.139,-22.305)"/></svg>