<?xml version="1.0" ?><svg id="icons" viewBox="0 0 64 64" xmlns="http://www.w3.org/2000/svg"><defs><style>.cls-1{fill:#231f20;}</style></defs><title/><path class="cls-1" d="M40.82,29.73a13.56,13.56,0,0,0,4.76-10.31V17.58a13.59,13.59,0,0,0-27.17,0v1.84a13.57,13.57,0,0,0,4.77,10.31A19.4,19.4,0,0,0,9,48.38V55a2,2,0,0,0,2,2H53a2,2,0,0,0,2-2V48.38A19.4,19.4,0,0,0,40.82,29.73ZM22.41,17.58a9.59,9.59,0,0,1,19.17,0v1.84a9.59,9.59,0,0,1-19.17,0ZM51,53H13V48.38A15.4,15.4,0,0,1,28.38,33h7.25A15.4,15.4,0,0,1,51,48.38Z"/></svg>